<?xml version="1.0" encoding="UTF-8" standalone="no"?>
<svg
   id="Layer_1"
   viewBox="0 0 228.13 228.13001"
   version="1.1"
   sodipodi:docname="DW-wolf2.svg"
   width="228.13"
   height="228.13"
   inkscape:version="1.2.2 (732a01da63, 2022-12-09)"
   xmlns:inkscape="http://www.inkscape.org/namespaces/inkscape"
   xmlns:sodipodi="http://sodipodi.sourceforge.net/DTD/sodipodi-0.dtd"
   xmlns="http://www.w3.org/2000/svg"
   xmlns:svg="http://www.w3.org/2000/svg">
  <sodipodi:namedview
     id="namedview14"
     pagecolor="#ffffff"
     bordercolor="#000000"
     borderopacity="0.25"
     inkscape:showpageshadow="2"
     inkscape:pageopacity="0.0"
     inkscape:pagecheckerboard="0"
     inkscape:deskcolor="#d1d1d1"
     showgrid="false"
     inkscape:zoom="4.2237303"
     inkscape:cx="114.11713"
     inkscape:cy="121.45662"
     inkscape:window-width="2560"
     inkscape:window-height="1387"
     inkscape:window-x="-8"
     inkscape:window-y="-8"
     inkscape:window-maximized="1"
     inkscape:current-layer="Layer_1" />
  <defs
     id="defs9">
    <style
       id="style2">.cls-1{fill:url(#linear-gradient);}</style>
    <linearGradient
       id="linear-gradient"
       x1="12.414"
       y1="121.575"
       x2="215.716"
       y2="121.575"
       gradientUnits="userSpaceOnUse"
       gradientTransform="matrix(0.99999766,0,0,1,-0.41471945,-7.8219997)">
      <stop
         offset="0"
         stop-color="#ebb87c"
         id="stop4" />
      <stop
         offset=".999"
         stop-color="#9b6f43"
         id="stop6" />
    </linearGradient>
  </defs>
  <path
     class="cls-1"
     d="m 215.02178,66.188 c -0.607,-3.528 -2.284,-6.506 -5.52299,-8.183 -4.51099,-2.371 -9.45498,-0.81 -13.99497,0.665 -0.781,0.231 -3.26699,1.07 -4.79999,1.33 v -0.029 c 0.636,-1.793 1.388,-3.557 2.111,-5.321 1.70599,-4.193 4.33699,-10.149 4.91599,-14.602 0.463,-3.701 -0.029,-7.46 -1.099,-11.017 -1.243,-3.99 -3.18099,-7.807 -5.37799,-11.335 -0.925,-1.475 -2.11099,-2.718 -3.52799,-3.701 -1.417,-0.983 -3.00699,-1.619 -4.71299,-1.937 L 182.81085,12 h -2.56599 c -1.478,0 -2.972,0.187 -4.33499,0.757 -0.923,0.386 -1.797,0.887 -2.612,1.499 l -31.54992,23.129 c -0.053,0.039 -0.119,0.056 -0.185,0.049 -4.73799,-0.568 -9.53198,-0.678 -14.26897,-0.103 -5.08899,0.578 -10.03398,1.995 -14.60197,4.337 L 54.884151,73.736 c -0.034,0.019 -0.07,0.03 -0.109,0.033 -10.006976,0.695 -25.57894,2.115 -34.409919,6.647 -10.293976,5.292 -10.871975,13.099 -2.919994,21.108 l 0.289,0.289 4.424989,3.405 c 2.721994,2.095 6.149986,2.743 9.243979,4.235 0.117,0.057 0.175999,0.19 0.134999,0.316 l -7.546982,23.429 c -2.784993,8.644 -2.683994,17.959 0.286999,26.541 l 19.243955,55.589 c 0.037,0.108 0.139,0.18 0.253,0.18 h 7.201983 c 0.095,0 0.183,-0.05 0.231,-0.133 l 31.898925,-54.492 c 0.104,-0.178 0.362999,-0.176 0.463999,0.003 l 30.863926,54.485 c 0.048,0.084 0.137,0.136 0.233,0.136 h 6.74298 c 0.111,0 0.212,-0.069 0.252,-0.173 17.41696,-44.835 27.63194,-89.908 70.30884,-117.523 1.309,-0.847 2.69299,-1.601 4.09599,-2.281 l 1.894,-0.918 c 8.67498,-4.25 13.67696,-7.634 16.48196,-17.638 l 0.087,-0.231 0.029,-0.26 c 0.636,-3.267 1.04099,-6.998 0.463,-10.294 z m -11.85498,7.894 c -1.67699,5.812 -5.23398,7.576 -10.29397,10.062 l -1.272,0.607 v 0.029 c -2.16899,1.07 -4.30799,2.198 -6.36098,3.528 -42.33191,27.616 -51.50988,63.779 -68.52184,108.46 -0.082,0.214 -0.38,0.24 -0.49,0.039 L 88.710071,146.452 c -0.047,-0.086 -0.137,-0.139 -0.235,-0.139 h -9.863975 c -0.096,0 -0.184,0.051 -0.232,0.134 l -29.026932,50.349 c -0.116,0.201 -0.415999,0.17 -0.486999,-0.052 L 36.327194,157.755 c -2.332994,-7.256 -2.013995,-15.106 0.899998,-22.149 l 9.230979,-22.304 c 0.108999,-0.065 0.178999,-0.107 0.287999,-0.172 11.197974,1.354 27.238936,-1.026 37.146913,-6.894 l 12.924969,-7.663 -14.601965,3.528 c -20.500952,4.916 -39.469908,3.672 -56.760867,-9.022 -0.318,-0.347 -0.924998,-1.128 -0.895998,-1.446 0.087,-0.26 0.895998,-0.752 1.127997,-0.867 7.314983,-3.759 23.044946,-4.916 31.199927,-5.465 L 58.188143,85.214 118.072,51.99 c 3.26699,-1.677 6.88199,-2.66 10.58298,-3.094 4.53999,-0.549 9.16598,-0.289 13.67697,0.405 l 2.37099,0.376 35.47892,-26.053 c 0.058,-0.058 0.202,-0.145 0.289,-0.145 0.116,-0.029 0.26,0 0.347,0 0.116,0.029 0.26,0.058 0.34699,0.116 0.087,0.058 0.145,0.173 0.202,0.26 l 0.619,0.985 c 1.408,2.24 2.598,4.621 3.386,7.147 0.64999,2.081 1.10299,4.384 0.82399,6.586 -0.405,3.007 -2.97799,8.761 -4.16399,11.711 -0.868,2.082 -1.73499,4.164 -2.48699,6.304 l -0.145,0.405 -0.087,0.434 c -0.376,2.111 -0.52,4.366 -0.029,6.477 0.578,2.516 1.90799,4.569 4.07699,5.986 4.97399,3.239 10.52498,1.533 15.70096,-0.145 0.781,-0.26 3.181,-1.041 4.53999,-1.301 0.202,1.735 -0.116,3.99 -0.434,5.639 z M 139.30295,63.811 c -4.24699,3.172 -8.49798,6.339 -12.74197,9.516 l -0.596,0.447 -0.74499,0.005 c -7.26199,0.043 -13.60197,2.789 -19.19396,7.357 l -1.543,1.261 -2.88799,-2.747 1.181,-1.604 c 8.68298,-11.799 20.39295,-19.024 35.28392,-18.304 l 6.28398,0.304 -5.03999,3.766 v 0 z"
     id="path11"
     style="fill:url(#linear-gradient);stroke-width:0.999999" />
</svg>
