<?xml version="1.0" encoding="UTF-8"?><svg id="Layer_1" xmlns="http://www.w3.org/2000/svg" xmlns:xlink="http://www.w3.org/1999/xlink" viewBox="0 0 228.13 243.15"><defs><style>.cls-1{fill:url(#linear-gradient);}</style><linearGradient id="linear-gradient" x1="12.414" y1="121.575" x2="215.716" y2="121.575" gradientUnits="userSpaceOnUse"><stop offset="0" stop-color="#ebb87c"/><stop offset=".999" stop-color="#9b6f43"/></linearGradient></defs><path class="cls-1" d="m215.437,74.01c-.607-3.528-2.284-6.506-5.523-8.183-4.511-2.371-9.455-.81-13.995.665-.781.231-3.267,1.07-4.8,1.33v-.029c.636-1.793,1.388-3.557,2.111-5.321,1.706-4.193,4.337-10.149,4.916-14.602.463-3.701-.029-7.46-1.099-11.017-1.243-3.99-3.181-7.807-5.378-11.335-.925-1.475-2.111-2.718-3.528-3.701-1.417-.983-3.007-1.619-4.713-1.937l-.202-.058h-2.566c-1.478,0-2.972.187-4.335.757-.923.386-1.797.887-2.612,1.499l-31.55,23.129c-.053.039-.119.056-.185.049-4.738-.568-9.532-.678-14.269-.103-5.089.578-10.034,1.995-14.602,4.337l-57.808,32.068c-.034.019-.07.03-.109.033-10.007.695-25.579,2.115-34.41,6.647-10.294,5.292-10.872,13.099-2.92,21.108l.289.289,4.425,3.405c2.722,2.095,6.15,2.743,9.244,4.235.117.057.176.19.135.316l-7.547,23.429c-2.785,8.644-2.684,17.959.287,26.541l19.244,55.589c.037.108.139.18.253.18h7.202c.095,0,.183-.05.231-.133l31.899-54.492c.104-.178.363-.176.464.003l30.864,54.485c.048.084.137.136.233.136h6.743c.111,0,.212-.069.252-.173,17.417-44.835,27.632-89.908,70.309-117.523,1.309-.847,2.693-1.601,4.096-2.281l1.894-.918c8.675-4.25,13.677-7.634,16.482-17.638l.087-.231.029-.26c.636-3.267,1.041-6.998.463-10.294Zm-11.855,7.894c-1.677,5.812-5.234,7.576-10.294,10.062l-1.272.607v.029c-2.169,1.07-4.308,2.198-6.361,3.528-42.332,27.616-51.51,63.779-68.522,108.46-.082.214-.38.24-.49.039l-27.518-50.355c-.047-.086-.137-.139-.235-.139h-9.864c-.096,0-.184.051-.232.134l-29.027,50.349c-.116.201-.416.17-.487-.052l-12.538-38.989c-2.333-7.256-2.014-15.106.9-22.149l9.231-22.304c.109-.065.179-.107.288-.172,11.198,1.354,27.239-1.026,37.147-6.894l12.925-7.663-14.602,3.528c-20.501,4.916-39.47,3.672-56.761-9.022-.318-.347-.925-1.128-.896-1.446.087-.26.896-.752,1.128-.867,7.315-3.759,23.045-4.916,31.2-5.465l1.301-.087,59.884-33.224c3.267-1.677,6.882-2.66,10.583-3.094,4.54-.549,9.166-.289,13.677.405l2.371.376,35.479-26.053c.058-.058.202-.145.289-.145.116-.029.26,0,.347,0,.116.029.26.058.347.116.087.058.145.173.202.26l.619.985c1.408,2.24,2.598,4.621,3.386,7.147.65,2.081,1.103,4.384.824,6.586-.405,3.007-2.978,8.761-4.164,11.711-.868,2.082-1.735,4.164-2.487,6.304l-.145.405-.087.434c-.376,2.111-.52,4.366-.029,6.477.578,2.516,1.908,4.569,4.077,5.986,4.974,3.239,10.525,1.533,15.701-.145.781-.26,3.181-1.041,4.54-1.301.202,1.735-.116,3.99-.434,5.639Zm-63.864-10.271c-4.247,3.172-8.498,6.339-12.742,9.516l-.596.447-.745.005c-7.262.043-13.602,2.789-19.194,7.357l-1.543,1.261-2.888-2.747,1.181-1.604c8.683-11.799,20.393-19.024,35.284-18.304l6.284.304-5.04,3.766h0Z"/></svg>